<svg width="27" height="27" viewBox="0 0 27 27" fill="none" xmlns="http://www.w3.org/2000/svg">
<path d="M13.5 27C20.9558 27 27 20.9558 27 13.5C27 6.04416 20.9558 0 13.5 0C6.04416 0 0 6.04416 0 13.5C0 20.9558 6.04416 27 13.5 27Z" fill="#236BAE"/>
<path d="M13.5 19.5C14.0523 19.5 14.5 19.0523 14.5 18.5V10.1881L17.4112 12.9837C17.7903 13.3478 18.3893 13.3473 18.7679 12.9827C19.1677 12.5978 19.1677 11.9578 18.7679 11.5728L14.1936 7.16795C13.8064 6.79504 13.1936 6.79504 12.8064 7.16795L8.23209 11.5728C7.83231 11.9578 7.83231 12.5978 8.23208 12.9827C8.6107 13.3473 9.2097 13.3478 9.58883 12.9837L12.5 10.1881V18.5C12.5 19.0523 12.9477 19.5 13.5 19.5Z" fill="white"/>
</svg>
