<svg width="24" height="28" viewBox="0 0 24 28" fill="none" xmlns="http://www.w3.org/2000/svg">
<path fill-rule="evenodd" clip-rule="evenodd" d="M17.3867 20.5197C18.08 19.8931 18.9867 19.4931 20 19.4931C22.1467 19.4931 23.8933 21.2397 23.8933 23.3864C23.8933 25.5331 22.1467 27.2797 20 27.2797C17.8533 27.2797 16.1067 25.5331 16.1067 23.3864C16.1067 23.0931 16.1467 22.7997 16.2133 22.5197L6.72 16.9731C6 17.6397 5.05333 18.0531 4 18.0531C1.78667 18.0531 0 16.2664 0 14.0531C0 11.8397 1.78667 10.0531 4 10.0531C5.05333 10.0531 6 10.4664 6.72 11.1331L16.12 5.65306C16.0533 5.34639 16 5.03973 16 4.71973C16 2.50639 17.7867 0.719727 20 0.719727C22.2133 0.719727 24 2.50639 24 4.71973C24 6.93306 22.2133 8.71973 20 8.71973C18.9467 8.71973 18 8.30639 17.28 7.63973L7.88 13.1197C7.94667 13.4264 8 13.7331 8 14.0531C8 14.3731 7.94667 14.6797 7.88 14.9864L17.3867 20.5197ZM21.3333 4.71972C21.3333 3.98639 20.7333 3.38639 20 3.38639C19.2666 3.38639 18.6666 3.98639 18.6666 4.71972C18.6666 5.45306 19.2666 6.05306 20 6.05306C20.7333 6.05306 21.3333 5.45306 21.3333 4.71972ZM3.99997 15.3864C3.26664 15.3864 2.66664 14.7864 2.66664 14.0531C2.66664 13.3197 3.26664 12.7197 3.99997 12.7197C4.73331 12.7197 5.33331 13.3197 5.33331 14.0531C5.33331 14.7864 4.73331 15.3864 3.99997 15.3864ZM18.6666 23.4131C18.6666 24.1464 19.2666 24.7464 20 24.7464C20.7333 24.7464 21.3333 24.1464 21.3333 23.4131C21.3333 22.6797 20.7333 22.0797 20 22.0797C19.2666 22.0797 18.6666 22.6797 18.6666 23.4131Z" fill="#777777"/>
</svg>
