<svg width="19" height="24" viewBox="0 0 19 24" fill="none" xmlns="http://www.w3.org/2000/svg">
<path fill-rule="evenodd" clip-rule="evenodd" d="M12.6667 0L14 1.33333H18.6667V4H0V1.33333H4.66667L6 0H12.6667ZM9.33328 12.7867L12.1599 9.96L14.0399 11.84L11.2133 14.6667L14.0399 17.4933L12.1599 19.3733L9.33328 16.5467L6.50661 19.3733L4.62661 17.4933L7.45328 14.6667L4.61328 11.84L6.49328 9.96L9.33328 12.7867ZM1.33333 21.3333C1.33333 22.8 2.53333 24 4 24H14.6667C16.1333 24 17.3333 22.8 17.3333 21.3333V5.33333H1.33333V21.3333ZM14.6667 8H4V21.3333H14.6667V8Z" fill="#236BAE"/>
</svg>
