<svg width="24" height="24" viewBox="0 0 24 24" fill="none" xmlns="http://www.w3.org/2000/svg">
<path fill-rule="evenodd" clip-rule="evenodd" d="M12 0.356445C5.57169 0.356445 0.356689 5.57144 0.356689 11.9998C0.356689 18.4281 5.57169 23.6431 12 23.6431C18.4284 23.6431 23.6434 18.4281 23.6434 11.9998C23.6434 5.57144 18.4284 0.356445 12 0.356445ZM12 21.3098C6.86669 21.3098 2.69002 17.1331 2.69002 11.9998C2.69002 6.86645 6.86669 2.68978 12 2.68978C17.1334 2.68978 21.31 6.86645 21.31 11.9998C21.31 17.1331 17.1334 21.3098 12 21.3098ZM7.62502 13.7498L12.875 3.83311V10.2498H16.375L11.2884 20.1664V13.7498H7.62502Z" fill="#777777"/>
</svg>
