<svg xmlns="http://www.w3.org/2000/svg" width="24" height="24"><path d="M.115 8.291c.398-1.175 1.713-1.82 2.941-1.437 1.095.342 1.748 1.391 1.586 2.452l3.987 1.238a3.422 3.422 0 00-.251.743l-3.991-1.24c-.524.937-1.685 1.409-2.775 1.069C.386 10.732-.282 9.467.115 8.291zm0 7.417c-.398-1.177.271-2.44 1.497-2.823 1.101-.342 2.27.141 2.788 1.094l3.981-1.253c.056.26.141.508.252.744l-3.986 1.254c.145 1.051-.504 2.084-1.591 2.424-1.228.383-2.542-.264-2.941-1.44zm4.539 6.001c-1.042-.728-1.274-2.129-.516-3.129.682-.9 1.93-1.17 2.931-.686l2.45-3.261c.201.175.421.328.659.458l-2.457 3.268a2.17 2.17 0 01.193 2.855c-.758 1.001-2.218 1.223-3.26.495zm14.69-19.417c1.044.727 1.275 2.128.518 3.129-.681.901-1.928 1.17-2.931.687l-2.451 3.26a3.724 3.724 0 00-.659-.458l2.458-3.266a2.17 2.17 0 01-.193-2.856c.757-1.003 2.214-1.224 3.258-.496zm4.541 5.999c.399 1.178-.272 2.441-1.498 2.825-1.098.341-2.27-.141-2.787-1.092l-3.982 1.251a3.281 3.281 0 00-.253-.744l3.989-1.254c-.146-1.049.504-2.084 1.591-2.423 1.226-.383 2.54.26 2.94 1.437zm0 7.417c-.398 1.175-1.714 1.823-2.94 1.44-1.098-.344-1.748-1.393-1.587-2.452l-3.987-1.238c.111-.236.195-.485.251-.744l3.992 1.24c.523-.937 1.683-1.409 2.773-1.069 1.226.383 1.895 1.647 1.498 2.823zm-4.541 6.001c-1.04.727-2.501.506-3.258-.495a2.171 2.171 0 01.214-2.877l-2.466-3.253c.237-.13.457-.284.657-.46l2.466 3.255c.997-.464 2.228-.191 2.905.701.757 1 .522 2.402-.518 3.129zM12 0c1.289 0 2.333 1.001 2.333 2.241 0 1.105-.831 2.02-1.926 2.205v4.027a3.451 3.451 0 00-.815 0V4.446c-1.094-.185-1.925-1.1-1.925-2.205C9.667 1.001 10.711 0 12 0zm.407 19.555c1.095.186 1.926 1.101 1.926 2.207C14.333 23 13.289 24 12 24c-1.289 0-2.333-1-2.333-2.238 0-1.106.831-2.021 1.925-2.207v-4.026a3.904 3.904 0 00.815 0zM12 9.76c1.288 0 2.332 1.003 2.332 2.241 0 1.239-1.043 2.243-2.332 2.241-1.289-.002-2.333-1.002-2.333-2.241 0-1.238 1.045-2.241 2.333-2.241zM4.655 2.292c1.04-.727 2.501-.507 3.258.496.678.895.565 2.11-.214 2.877l2.466 3.252c-.236.13-.456.285-.656.46L7.041 6.121c-.997.465-2.228.193-2.903-.7-.758-1.001-.523-2.402.517-3.129z" fill="rgba(119,119,119,1)"/></svg>