<svg width="32" height="32" viewBox="0 0 32 32" fill="none" xmlns="http://www.w3.org/2000/svg">
<path fill-rule="evenodd" clip-rule="evenodd" d="M7.12338 10.7202C8.78935 7.52016 12.148 5.3335 15.9997 5.3335C20.851 5.3335 24.8893 8.78683 25.8089 13.3868C29.2608 13.6268 31.993 16.4802 31.993 20.0002C31.993 23.6802 29.0076 26.6668 25.3291 26.6668H8.00302C3.59152 26.6668 0.00634766 23.0802 0.00634766 18.6668C0.00634766 14.5468 3.12505 11.1468 7.12338 10.7202ZM23.1967 13.9068C22.517 10.4802 19.4782 8.00016 15.9997 8.00016C13.2542 8.00016 10.7619 9.52016 9.50906 11.9602L8.84267 13.2268L7.41659 13.3735C4.71105 13.6535 2.6719 15.9335 2.6719 18.6668C2.6719 21.6135 5.05758 24.0002 8.00302 24.0002H25.3291C27.5282 24.0002 29.3275 22.2002 29.3275 20.0002C29.3275 17.9335 27.7015 16.2002 25.6223 16.0535L23.5965 15.9068L23.1967 13.9068Z" fill="black" fill-opacity="0.54"/>
</svg>
