<svg width="32" height="32" viewBox="0 0 32 32" fill="none" xmlns="http://www.w3.org/2000/svg">
<path fill-rule="evenodd" clip-rule="evenodd" d="M22.6665 1.3335H9.33317C7.8665 1.3335 6.6665 2.5335 6.6665 4.00016V28.0002C6.6665 29.4668 7.8665 30.6668 9.33317 30.6668H22.6665C24.1332 30.6668 25.3332 29.4668 25.3332 28.0002V4.00016C25.3332 2.5335 24.1332 1.3335 22.6665 1.3335ZM19.9998 20.0002C19.9998 20.7335 19.3998 21.3335 18.6665 21.3335H13.3332C12.5998 21.3335 11.9998 20.7335 11.9998 20.0002V16.0002C11.9998 15.2668 12.5998 14.6668 13.3332 14.6668V13.3335C13.3332 11.8668 14.5198 10.6668 15.9998 10.6668C17.4665 10.6668 18.6665 11.8535 18.6665 13.3335V14.6668C19.3998 14.6668 19.9998 15.2668 19.9998 16.0002V20.0002ZM15.9998 11.7335C15.1198 11.7335 14.3998 12.4535 14.3998 13.3335V14.6668H17.5998V13.3335C17.5998 12.4535 16.8798 11.7335 15.9998 11.7335ZM9.33317 25.3335H22.6665V6.66683H9.33317V25.3335Z" fill="#777777"/>
</svg>
